HIERARCHY
ROOT Hips
{
	OFFSET -0.179506 -22.333345 2.821913
	CHANNELS 6 Xposition Yposition Zposition Zrotation Yrotation Xrotation 
	JOINT LeftUpLeg
	{
		OFFSET 6.951974 -9.140623 -0.681533
		CHANNELS 3 Zrotation Yrotation Xrotation
		JOINT LeftLeg
		{
			OFFSET 3.427654 -37.519855 -0.449580
			CHANNELS 3 Zrotation Yrotation Xrotation
			JOINT LeftFoot
			{
				OFFSET -1.359570 -39.796059 -4.369333
				CHANNELS 3 Zrotation Yrotation Xrotation
				JOINT LeftToe
				{
					OFFSET 2.635814 -5.579078 11.928840
					CHANNELS 3 Zrotation Yrotation Xrotation
					End Site
					{
						OFFSET 0.000000 0.000000 0.000000
					}
				}
			}
		}
	}
	JOINT RightUpLeg
	{
		OFFSET -6.767048 -9.052170 -0.431982
		CHANNELS 3 Zrotation Yrotation Xrotation
		JOINT RightLeg
		{
			OFFSET -3.829005 -38.256897 -0.885003
			CHANNELS 3 Zrotation Yrotation Xrotation
			JOINT RightFoot
			{
				OFFSET 1.577377 -39.841461 -4.231180
				CHANNELS 3 Zrotation Yrotation Xrotation
				JOINT RightToe
				{
					OFFSET -2.537174 -4.814398 12.334795
					CHANNELS 3 Zrotation Yrotation Xrotation
					End Site
					{
						OFFSET 0.000000 0.000000 0.000000
					}
				}
			}
		}
	}
	JOINT Spine
	{
		OFFSET -0.253288 10.896323 -2.669631
		CHANNELS 3 Zrotation Yrotation Xrotation
		JOINT Spine1
		{
			OFFSET 0.548704 13.518043 0.109247
			CHANNELS 3 Zrotation Yrotation Xrotation
			JOINT Spine2
			{
				OFFSET 0.145701 5.292222 2.542457
				CHANNELS 3 Zrotation Yrotation Xrotation
				JOINT Neck
				{
					OFFSET -0.277840 21.387037 -4.285703
					CHANNELS 3 Zrotation Yrotation Xrotation
					JOINT Head
					{
						OFFSET 0.515184 6.496960 5.134897
						CHANNELS 3 Zrotation Yrotation Xrotation
						End Site
						{
							OFFSET 0.000000 0.000000 0.000000
						}
					}
				}
				JOINT LeftShoulder
				{
					OFFSET 7.884473 12.174932 -3.408961
					CHANNELS 3 Zrotation Yrotation Xrotation
					JOINT LeftArm
					{
						OFFSET 9.097692 3.046888 -0.886815
						CHANNELS 3 Zrotation Yrotation Xrotation
						JOINT LeftForeArm
						{
							OFFSET 25.961220 -1.277207 -2.745643
							CHANNELS 3 Zrotation Yrotation Xrotation
							JOINT LeftHand
							{
								OFFSET 24.923361 0.898606 -0.117091
								CHANNELS 3 Zrotation Yrotation Xrotation
								End Site
								{
									OFFSET 0.000000 0.000000 0.000000
								}
							}
						}
					}
				}
				JOINT RightShoulder
				{
					OFFSET -8.175920 11.883285 -3.861528
					CHANNELS 3 Zrotation Yrotation Xrotation
					JOINT RightArm
					{
						OFFSET -9.601238 3.255117 -0.914307
						CHANNELS 3 Zrotation Yrotation Xrotation
						JOINT RightForeArm
						{
							OFFSET -25.374195 -1.332924 -2.140099
							CHANNELS 3 Zrotation Yrotation Xrotation
							JOINT RightHand
							{
								OFFSET -25.529810 0.777228 -0.555919
								CHANNELS 3 Zrotation Yrotation Xrotation
								End Site
								{
									OFFSET 0.000000 0.000000 0.000000
								}
							}
						}
					}
				}
			}
		}
	}
}
MOTION
Frames: 9
Frame Time: 0.033333
233.794815 -202.105103 93.771851 -126.122484 1.958874 82.873804 4.714736 -0.972209 -6.207286 -8.151803 -4.501587 59.510996 1.076506 7.071262 -9.058102 nan nan nan 6.934489 -3.040310 -1.528211 0.814174 -2.756001 16.131234 2.665875 -4.740369 -6.734286 nan nan nan 1.597545 2.099573 18.445606 3.520763 -3.473610 1.008585 2.386772 -1.675630 0.391207 -0.129687 -6.012497 -9.474149 5.865648 -5.315534 -13.595967 -23.868135 -5.495015 2.487496 -55.518005 -7.914776 8.607659 2.251888 -21.188974 7.130503 -13.299680 -0.414994 -17.993397 23.143762 4.876391 -2.342443 52.551247 3.378981 11.253404 -6.042159 21.580393 11.235579 20.369110 -3.991513 -4.971094 
233.189606 -201.487228 93.911102 -126.646861 1.689872 82.895002 4.443042 -1.311595 -7.238184 -7.997357 -3.421266 58.950471 0.261126 7.439328 -10.275662 nan nan nan 6.841335 -3.296035 -0.391462 0.608798 -2.454796 15.028649 2.859949 -4.423249 -6.524814 nan nan nan 1.553540 2.859765 18.340673 3.248653 -3.251272 1.080773 2.360240 -1.478827 0.405762 -0.225778 -6.035165 -8.934344 6.055576 -5.576274 -13.621544 -23.727087 -5.221877 2.270479 -55.731394 -7.521167 8.607279 2.722224 -21.153648 6.734239 -13.165940 -0.475686 -18.552757 22.935768 5.005918 -2.371249 52.560116 3.975704 11.336085 -5.936029 21.639160 11.381583 20.339006 -4.007339 -5.292554 
232.549026 -200.903870 94.029839 -127.132728 1.278252 82.949046 3.851340 -1.523592 -8.753660 -7.524739 -2.834589 58.402341 1.420007 7.217744 -9.824810 nan nan nan 6.519965 -3.705532 0.681971 0.483787 -1.934500 13.896170 2.663710 -4.184111 -6.167558 nan nan nan 1.520289 3.459868 18.132759 2.914499 -3.078267 1.291886 2.171777 -1.232785 0.407601 -0.319684 -6.381511 -8.431493 6.167716 -5.620654 -13.740448 -23.792107 -4.834683 2.113449 -55.555894 -7.290968 8.532942 2.841130 -21.197421 6.358282 -13.089607 -0.406792 -19.180942 22.860041 5.241725 -2.265812 52.516038 4.632576 11.407060 -5.960844 21.743661 11.160203 20.382768 -4.039449 -5.282233 
231.972382 -200.346283 94.127815 -127.594043 0.858467 83.123166 3.226289 -1.752220 -10.372966 -6.997050 -2.353959 57.848566 2.802794 7.030545 -9.565943 nan nan nan 6.302189 -3.719947 1.575645 0.289990 -1.024086 12.931209 2.473068 -4.130624 -6.146007 nan nan nan 1.349344 3.965303 18.208223 2.633956 -2.841956 0.980665 2.045335 -0.907491 0.469325 -0.418029 -6.762951 -8.232651 6.184982 -5.654682 -13.601832 -23.809898 -4.383299 1.944738 -55.451584 -6.989789 8.397937 3.014951 -21.241382 6.071469 -13.264603 -0.494112 -19.324777 22.746379 5.375164 -2.357629 52.512255 5.098733 11.540826 -6.032888 21.926485 10.792478 20.308840 -3.911012 -5.328086 
231.317047 -199.804916 94.254951 -128.192797 0.166429 82.927109 2.524850 -2.306207 -11.310515 -6.706726 -1.207016 56.866386 3.628295 7.027005 -9.200237 nan nan nan 5.589752 -3.811115 2.945072 0.201824 -0.226839 11.948848 2.390993 -3.870190 -6.249560 nan nan nan 1.014772 4.680031 18.839778 2.300546 -2.700172 0.639237 1.931000 -0.565139 0.247322 -0.562124 -6.844317 -7.815092 6.232658 -5.910565 -13.507632 -23.771763 -4.086404 1.861978 -55.316563 -6.353183 7.909600 3.946211 -22.257188 6.293072 -17.089454 0.762639 -18.903460 22.530206 5.600376 -2.360690 52.693914 5.244553 11.519984 -6.434203 22.497744 10.705786 21.582460 -4.530365 -5.587952 
230.762527 -199.261261 94.323395 -128.673058 -0.170035 82.890491 2.191071 -2.792435 -12.528735 -6.255983 -0.354653 55.968174 3.473694 7.317225 -9.533891 nan nan nan 5.338136 -4.050816 4.002021 0.012780 0.357344 10.996581 2.730993 -3.643469 -6.539641 nan nan nan 0.940487 5.267512 19.388030 2.044851 -2.605558 0.010235 1.818872 -0.151003 0.445554 -0.749351 -7.100982 -7.739201 6.414827 -6.104717 -13.295186 -23.435172 -3.676470 1.679284 -55.387410 -6.238522 8.134477 2.612942 -21.500539 5.145935 -12.390873 -1.423043 -20.569204 22.220969 5.476095 -2.630735 52.724221 5.879716 12.008524 -5.885616 22.554465 11.076954 18.619648 -3.758984 -4.262208 
230.262650 -198.722580 94.361778 -129.195875 -0.308060 83.144823 2.075864 -2.806807 -14.117509 -5.678578 0.150300 55.059225 3.104050 7.739656 -10.205679 nan nan nan 5.392305 -4.152373 4.613845 -0.254835 0.867788 10.207738 2.978242 -3.399994 -6.884448 nan nan nan 0.961494 5.716995 19.234864 1.824759 -2.377611 -0.092481 1.698223 0.213313 0.624148 -0.839934 -7.282133 -7.518933 6.429267 -6.334481 -13.321253 -23.321013 -3.386575 1.522866 -55.296955 -6.068396 8.176255 2.574095 -21.591185 4.951419 -12.005662 -1.571445 -20.900376 22.098048 5.608226 -2.702884 52.554072 6.657252 12.113008 -5.737051 22.736763 11.387575 18.441996 -3.706680 -3.987442 
229.749893 -198.186127 94.407921 -129.632484 -0.364517 83.398212 1.968086 -2.540022 -15.645862 -5.229558 0.231180 54.034029 3.069883 7.824440 -10.344584 nan nan nan 5.442181 -4.368542 5.158460 -0.448234 1.202877 9.555067 3.006779 -3.139059 -6.801083 nan nan nan 1.081804 6.006803 19.190469 1.584997 -2.149752 -0.232085 1.556579 0.561149 0.611561 -0.938226 -7.399394 -7.196267 6.492386 -6.466295 -13.270676 -23.279915 -3.094452 1.392741 -55.190748 -5.677704 8.077582 2.693048 -21.837464 4.914318 -12.208258 -1.425362 -20.795814 22.019797 5.870769 -2.722369 52.382952 7.262983 12.051852 -5.717437 22.875237 11.337283 18.594630 -3.785532 -4.056809 
229.195602 -197.625687 94.433708 -130.104835 -0.502382 83.626923 1.779628 -2.618114 -16.968881 -4.883487 0.468252 52.748352 3.314900 7.891351 -10.251185 nan nan nan 5.323466 -4.580228 5.786694 -0.573379 1.608008 8.847106 2.834965 -2.925942 -6.661969 nan nan nan 1.166731 6.332955 19.131115 1.306615 -1.981872 -0.262227 1.402206 0.835538 0.455593 -0.978260 -7.479137 -6.820593 6.447968 -6.587862 -13.201835 -23.297949 -2.624425 1.248975 -54.946648 -5.239352 8.017910 2.657260 -22.131526 5.031682 -12.449265 -1.465848 -20.659500 21.886452 6.070283 -2.705668 52.234345 8.006469 12.094786 -5.496415 22.839533 11.042663 18.667531 -3.896183 -4.503619 
